<?xml version="1.0" encoding="utf-8"?>
<!-- Generator: Adobe Illustrator 23.0.5, SVG Export Plug-In . SVG Version: 6.00 Build 0)  -->
<svg version="1.1" id="Capa_1" xmlns="http://www.w3.org/2000/svg" xmlns:xlink="http://www.w3.org/1999/xlink" x="0px" y="0px"
	 viewBox="0 0 31.9 20" style="enable-background:new 0 0 31.9 20;" xml:space="preserve">
<style type="text/css">
	.st0{fill:#BDBDBD;}
</style>
<g>
	<polygon class="st0" points="0.3,4.3 0.1,4.3 0.1,4.6 0.1,19.8 0.1,20 0.3,20 3.2,20 3.4,20 3.4,19.8 3.4,4.6 3.4,4.3 3.2,4.3 	"/>
	<polygon class="st0" points="6,13.8 5.8,13.8 5.8,14.1 5.8,19.8 5.8,20 6,20 8.9,20 9.1,20 9.1,19.8 9.1,14.1 9.1,13.8 8.9,13.8 	
		"/>
	<polygon class="st0" points="11.7,2.4 11.5,2.4 11.5,2.6 11.5,19.8 11.5,20 11.7,20 14.6,20 14.8,20 14.8,19.8 14.8,2.6 14.8,2.4 
		14.6,2.4 	"/>
	<polygon class="st0" points="17.4,6.2 17.2,6.2 17.2,6.5 17.2,19.8 17.2,20 17.4,20 20.3,20 20.6,20 20.6,19.8 20.6,6.5 20.6,6.2 
		20.3,6.2 	"/>
	<polygon class="st0" points="23.2,0.5 22.9,0.5 22.9,0.7 22.9,19.8 22.9,20 23.2,20 26,20 26.3,20 26.3,19.8 26.3,0.7 26.3,0.5 
		26,0.5 	"/>
	<polygon class="st0" points="31.7,5.3 28.9,5.3 28.6,5.3 28.6,5.5 28.6,19.8 28.6,20 28.9,20 31.7,20 32,20 32,19.8 32,5.5 32,5.3 
			"/>
</g>
</svg>
